<mxfile host="app.diagrams.net" modified="2021-08-03T02:22:18.956Z" agent="5.0 (Windows NT 10.0; Win64; x64) AppleWebKit/537.36 (KHTML, like Gecko) Chrome/92.0.4515.107 Safari/537.36" etag="6cWjS4eHsaGgpnYeCh9F" version="14.9.3" type="github">
  <diagram id="R2lEEEUBdFMjLlhIrx00" name="Page-1">
    <mxGraphModel dx="2272" dy="1862" grid="1" gridSize="10" guides="1" tooltips="1" connect="1" arrows="1" fold="1" page="1" pageScale="1" pageWidth="850" pageHeight="1100" math="0" shadow="0" extFonts="Permanent Marker^https://fonts.googleapis.com/css?family=Permanent+Marker">
      <root>
        <mxCell id="0" />
        <mxCell id="1" parent="0" />
        <mxCell id="xagKB5DLQkzwOVzmP2za-1" value="product" style="shape=table;startSize=30;container=1;collapsible=1;childLayout=tableLayout;fixedRows=1;rowLines=0;fontStyle=1;align=center;resizeLast=1;" parent="1" vertex="1">
          <mxGeometry x="315" y="-660" width="220" height="390" as="geometry" />
        </mxCell>
        <mxCell id="xagKB5DLQkzwOVzmP2za-2" value="" style="shape=partialRectangle;collapsible=0;dropTarget=0;pointerEvents=0;fillColor=none;top=0;left=0;bottom=1;right=0;points=[[0,0.5],[1,0.5]];portConstraint=eastwest;" parent="xagKB5DLQkzwOVzmP2za-1" vertex="1">
          <mxGeometry y="30" width="220" height="30" as="geometry" />
        </mxCell>
        <mxCell id="xagKB5DLQkzwOVzmP2za-3" value="PK" style="shape=partialRectangle;connectable=0;fillColor=none;top=0;left=0;bottom=0;right=0;fontStyle=1;overflow=hidden;" parent="xagKB5DLQkzwOVzmP2za-2" vertex="1">
          <mxGeometry width="25" height="30" as="geometry" />
        </mxCell>
        <mxCell id="xagKB5DLQkzwOVzmP2za-4" value="id bigint NOT NULL" style="shape=partialRectangle;connectable=0;fillColor=none;top=0;left=0;bottom=0;right=0;align=left;spacingLeft=6;fontStyle=5;overflow=hidden;" parent="xagKB5DLQkzwOVzmP2za-2" vertex="1">
          <mxGeometry x="25" width="195" height="30" as="geometry" />
        </mxCell>
        <mxCell id="xagKB5DLQkzwOVzmP2za-26" value="" style="shape=partialRectangle;collapsible=0;dropTarget=0;pointerEvents=0;fillColor=none;top=0;left=0;bottom=1;right=0;points=[[0,0.5],[1,0.5]];portConstraint=eastwest;" parent="xagKB5DLQkzwOVzmP2za-1" vertex="1">
          <mxGeometry y="60" width="220" height="30" as="geometry" />
        </mxCell>
        <mxCell id="xagKB5DLQkzwOVzmP2za-27" value="FK" style="shape=partialRectangle;connectable=0;fillColor=none;top=0;left=0;bottom=0;right=0;fontStyle=1;overflow=hidden;" parent="xagKB5DLQkzwOVzmP2za-26" vertex="1">
          <mxGeometry width="25" height="30" as="geometry" />
        </mxCell>
        <mxCell id="xagKB5DLQkzwOVzmP2za-28" value="id_garantie bigint NULL" style="shape=partialRectangle;connectable=0;fillColor=none;top=0;left=0;bottom=0;right=0;align=left;spacingLeft=6;fontStyle=5;overflow=hidden;" parent="xagKB5DLQkzwOVzmP2za-26" vertex="1">
          <mxGeometry x="25" width="195" height="30" as="geometry" />
        </mxCell>
        <mxCell id="xagKB5DLQkzwOVzmP2za-160" value="" style="shape=partialRectangle;collapsible=0;dropTarget=0;pointerEvents=0;fillColor=none;top=0;left=0;bottom=1;right=0;points=[[0,0.5],[1,0.5]];portConstraint=eastwest;" parent="xagKB5DLQkzwOVzmP2za-1" vertex="1">
          <mxGeometry y="90" width="220" height="30" as="geometry" />
        </mxCell>
        <mxCell id="xagKB5DLQkzwOVzmP2za-161" value="FK" style="shape=partialRectangle;connectable=0;fillColor=none;top=0;left=0;bottom=0;right=0;fontStyle=1;overflow=hidden;" parent="xagKB5DLQkzwOVzmP2za-160" vertex="1">
          <mxGeometry width="25" height="30" as="geometry" />
        </mxCell>
        <mxCell id="xagKB5DLQkzwOVzmP2za-162" value="id_categorie bigint NOT NULL" style="shape=partialRectangle;connectable=0;fillColor=none;top=0;left=0;bottom=0;right=0;align=left;spacingLeft=6;fontStyle=5;overflow=hidden;" parent="xagKB5DLQkzwOVzmP2za-160" vertex="1">
          <mxGeometry x="25" width="195" height="30" as="geometry" />
        </mxCell>
        <mxCell id="xagKB5DLQkzwOVzmP2za-164" value="" style="shape=partialRectangle;collapsible=0;dropTarget=0;pointerEvents=0;fillColor=none;top=0;left=0;bottom=1;right=0;points=[[0,0.5],[1,0.5]];portConstraint=eastwest;" parent="xagKB5DLQkzwOVzmP2za-1" vertex="1">
          <mxGeometry y="120" width="220" height="30" as="geometry" />
        </mxCell>
        <mxCell id="xagKB5DLQkzwOVzmP2za-165" value="FK" style="shape=partialRectangle;connectable=0;fillColor=none;top=0;left=0;bottom=0;right=0;fontStyle=1;overflow=hidden;" parent="xagKB5DLQkzwOVzmP2za-164" vertex="1">
          <mxGeometry width="25" height="30" as="geometry" />
        </mxCell>
        <mxCell id="xagKB5DLQkzwOVzmP2za-166" value="id_price bigint NOT NULL" style="shape=partialRectangle;connectable=0;fillColor=none;top=0;left=0;bottom=0;right=0;align=left;spacingLeft=6;fontStyle=5;overflow=hidden;" parent="xagKB5DLQkzwOVzmP2za-164" vertex="1">
          <mxGeometry x="25" width="195" height="30" as="geometry" />
        </mxCell>
        <mxCell id="xagKB5DLQkzwOVzmP2za-203" value="" style="shape=partialRectangle;collapsible=0;dropTarget=0;pointerEvents=0;fillColor=none;top=0;left=0;bottom=1;right=0;points=[[0,0.5],[1,0.5]];portConstraint=eastwest;" parent="xagKB5DLQkzwOVzmP2za-1" vertex="1">
          <mxGeometry y="150" width="220" height="30" as="geometry" />
        </mxCell>
        <mxCell id="xagKB5DLQkzwOVzmP2za-204" value="FK" style="shape=partialRectangle;connectable=0;fillColor=none;top=0;left=0;bottom=0;right=0;fontStyle=1;overflow=hidden;" parent="xagKB5DLQkzwOVzmP2za-203" vertex="1">
          <mxGeometry width="25" height="30" as="geometry" />
        </mxCell>
        <mxCell id="xagKB5DLQkzwOVzmP2za-205" value="id_discount bigint NOT NULL" style="shape=partialRectangle;connectable=0;fillColor=none;top=0;left=0;bottom=0;right=0;align=left;spacingLeft=6;fontStyle=5;overflow=hidden;" parent="xagKB5DLQkzwOVzmP2za-203" vertex="1">
          <mxGeometry x="25" width="195" height="30" as="geometry" />
        </mxCell>
        <mxCell id="xagKB5DLQkzwOVzmP2za-5" value="" style="shape=partialRectangle;collapsible=0;dropTarget=0;pointerEvents=0;fillColor=none;top=0;left=0;bottom=0;right=0;points=[[0,0.5],[1,0.5]];portConstraint=eastwest;" parent="xagKB5DLQkzwOVzmP2za-1" vertex="1">
          <mxGeometry y="180" width="220" height="30" as="geometry" />
        </mxCell>
        <mxCell id="xagKB5DLQkzwOVzmP2za-6" value="" style="shape=partialRectangle;connectable=0;fillColor=none;top=0;left=0;bottom=0;right=0;editable=1;overflow=hidden;" parent="xagKB5DLQkzwOVzmP2za-5" vertex="1">
          <mxGeometry width="25" height="30" as="geometry" />
        </mxCell>
        <mxCell id="xagKB5DLQkzwOVzmP2za-7" value="description text NOT NULL" style="shape=partialRectangle;connectable=0;fillColor=none;top=0;left=0;bottom=0;right=0;align=left;spacingLeft=6;overflow=hidden;" parent="xagKB5DLQkzwOVzmP2za-5" vertex="1">
          <mxGeometry x="25" width="195" height="30" as="geometry" />
        </mxCell>
        <mxCell id="xagKB5DLQkzwOVzmP2za-8" value="" style="shape=partialRectangle;collapsible=0;dropTarget=0;pointerEvents=0;fillColor=none;top=0;left=0;bottom=0;right=0;points=[[0,0.5],[1,0.5]];portConstraint=eastwest;" parent="xagKB5DLQkzwOVzmP2za-1" vertex="1">
          <mxGeometry y="210" width="220" height="30" as="geometry" />
        </mxCell>
        <mxCell id="xagKB5DLQkzwOVzmP2za-9" value="" style="shape=partialRectangle;connectable=0;fillColor=none;top=0;left=0;bottom=0;right=0;editable=1;overflow=hidden;" parent="xagKB5DLQkzwOVzmP2za-8" vertex="1">
          <mxGeometry width="25" height="30" as="geometry" />
        </mxCell>
        <mxCell id="xagKB5DLQkzwOVzmP2za-10" value="serial_number integer NOT NULL" style="shape=partialRectangle;connectable=0;fillColor=none;top=0;left=0;bottom=0;right=0;align=left;spacingLeft=6;overflow=hidden;" parent="xagKB5DLQkzwOVzmP2za-8" vertex="1">
          <mxGeometry x="25" width="195" height="30" as="geometry" />
        </mxCell>
        <mxCell id="xagKB5DLQkzwOVzmP2za-17" value="" style="shape=partialRectangle;collapsible=0;dropTarget=0;pointerEvents=0;fillColor=none;top=0;left=0;bottom=0;right=0;points=[[0,0.5],[1,0.5]];portConstraint=eastwest;" parent="xagKB5DLQkzwOVzmP2za-1" vertex="1">
          <mxGeometry y="240" width="220" height="30" as="geometry" />
        </mxCell>
        <mxCell id="xagKB5DLQkzwOVzmP2za-18" value="" style="shape=partialRectangle;connectable=0;fillColor=none;top=0;left=0;bottom=0;right=0;editable=1;overflow=hidden;" parent="xagKB5DLQkzwOVzmP2za-17" vertex="1">
          <mxGeometry width="25" height="30" as="geometry" />
        </mxCell>
        <mxCell id="xagKB5DLQkzwOVzmP2za-19" value="model text NULL" style="shape=partialRectangle;connectable=0;fillColor=none;top=0;left=0;bottom=0;right=0;align=left;spacingLeft=6;overflow=hidden;" parent="xagKB5DLQkzwOVzmP2za-17" vertex="1">
          <mxGeometry x="25" width="195" height="30" as="geometry" />
        </mxCell>
        <mxCell id="xagKB5DLQkzwOVzmP2za-11" value="" style="shape=partialRectangle;collapsible=0;dropTarget=0;pointerEvents=0;fillColor=none;top=0;left=0;bottom=0;right=0;points=[[0,0.5],[1,0.5]];portConstraint=eastwest;" parent="xagKB5DLQkzwOVzmP2za-1" vertex="1">
          <mxGeometry y="270" width="220" height="30" as="geometry" />
        </mxCell>
        <mxCell id="xagKB5DLQkzwOVzmP2za-12" value="" style="shape=partialRectangle;connectable=0;fillColor=none;top=0;left=0;bottom=0;right=0;editable=1;overflow=hidden;" parent="xagKB5DLQkzwOVzmP2za-11" vertex="1">
          <mxGeometry width="25" height="30" as="geometry" />
        </mxCell>
        <mxCell id="xagKB5DLQkzwOVzmP2za-13" value="brand text NULL" style="shape=partialRectangle;connectable=0;fillColor=none;top=0;left=0;bottom=0;right=0;align=left;spacingLeft=6;overflow=hidden;" parent="xagKB5DLQkzwOVzmP2za-11" vertex="1">
          <mxGeometry x="25" width="195" height="30" as="geometry" />
        </mxCell>
        <mxCell id="xagKB5DLQkzwOVzmP2za-14" value="" style="shape=partialRectangle;collapsible=0;dropTarget=0;pointerEvents=0;fillColor=none;top=0;left=0;bottom=0;right=0;points=[[0,0.5],[1,0.5]];portConstraint=eastwest;" parent="xagKB5DLQkzwOVzmP2za-1" vertex="1">
          <mxGeometry y="300" width="220" height="30" as="geometry" />
        </mxCell>
        <mxCell id="xagKB5DLQkzwOVzmP2za-15" value="" style="shape=partialRectangle;connectable=0;fillColor=none;top=0;left=0;bottom=0;right=0;editable=1;overflow=hidden;" parent="xagKB5DLQkzwOVzmP2za-14" vertex="1">
          <mxGeometry width="25" height="30" as="geometry" />
        </mxCell>
        <mxCell id="xagKB5DLQkzwOVzmP2za-16" value="is_new smallint NULL" style="shape=partialRectangle;connectable=0;fillColor=none;top=0;left=0;bottom=0;right=0;align=left;spacingLeft=6;overflow=hidden;" parent="xagKB5DLQkzwOVzmP2za-14" vertex="1">
          <mxGeometry x="25" width="195" height="30" as="geometry" />
        </mxCell>
        <mxCell id="xagKB5DLQkzwOVzmP2za-20" value="" style="shape=partialRectangle;collapsible=0;dropTarget=0;pointerEvents=0;fillColor=none;top=0;left=0;bottom=0;right=0;points=[[0,0.5],[1,0.5]];portConstraint=eastwest;" parent="xagKB5DLQkzwOVzmP2za-1" vertex="1">
          <mxGeometry y="330" width="220" height="30" as="geometry" />
        </mxCell>
        <mxCell id="xagKB5DLQkzwOVzmP2za-21" value="" style="shape=partialRectangle;connectable=0;fillColor=none;top=0;left=0;bottom=0;right=0;editable=1;overflow=hidden;" parent="xagKB5DLQkzwOVzmP2za-20" vertex="1">
          <mxGeometry width="25" height="30" as="geometry" />
        </mxCell>
        <mxCell id="xagKB5DLQkzwOVzmP2za-22" value="is_used smallint NULL" style="shape=partialRectangle;connectable=0;fillColor=none;top=0;left=0;bottom=0;right=0;align=left;spacingLeft=6;overflow=hidden;" parent="xagKB5DLQkzwOVzmP2za-20" vertex="1">
          <mxGeometry x="25" width="195" height="30" as="geometry" />
        </mxCell>
        <mxCell id="xagKB5DLQkzwOVzmP2za-29" value="" style="shape=partialRectangle;collapsible=0;dropTarget=0;pointerEvents=0;fillColor=none;top=0;left=0;bottom=0;right=0;points=[[0,0.5],[1,0.5]];portConstraint=eastwest;" parent="xagKB5DLQkzwOVzmP2za-1" vertex="1">
          <mxGeometry y="360" width="220" height="20" as="geometry" />
        </mxCell>
        <mxCell id="xagKB5DLQkzwOVzmP2za-30" value="" style="shape=partialRectangle;connectable=0;fillColor=none;top=0;left=0;bottom=0;right=0;editable=1;overflow=hidden;" parent="xagKB5DLQkzwOVzmP2za-29" vertex="1">
          <mxGeometry width="25" height="20" as="geometry" />
        </mxCell>
        <mxCell id="xagKB5DLQkzwOVzmP2za-31" value="date_creation date NOT NULL" style="shape=partialRectangle;connectable=0;fillColor=none;top=0;left=0;bottom=0;right=0;align=left;spacingLeft=6;overflow=hidden;" parent="xagKB5DLQkzwOVzmP2za-29" vertex="1">
          <mxGeometry x="25" width="195" height="20" as="geometry" />
        </mxCell>
        <mxCell id="xagKB5DLQkzwOVzmP2za-32" value="garantie" style="shape=table;startSize=30;container=1;collapsible=1;childLayout=tableLayout;fixedRows=1;rowLines=0;fontStyle=1;align=center;resizeLast=1;" parent="1" vertex="1">
          <mxGeometry x="-130" y="-660" width="220" height="160" as="geometry" />
        </mxCell>
        <mxCell id="xagKB5DLQkzwOVzmP2za-33" value="" style="shape=partialRectangle;collapsible=0;dropTarget=0;pointerEvents=0;fillColor=none;top=0;left=0;bottom=1;right=0;points=[[0,0.5],[1,0.5]];portConstraint=eastwest;" parent="xagKB5DLQkzwOVzmP2za-32" vertex="1">
          <mxGeometry y="30" width="220" height="30" as="geometry" />
        </mxCell>
        <mxCell id="xagKB5DLQkzwOVzmP2za-34" value="PK" style="shape=partialRectangle;connectable=0;fillColor=none;top=0;left=0;bottom=0;right=0;fontStyle=1;overflow=hidden;" parent="xagKB5DLQkzwOVzmP2za-33" vertex="1">
          <mxGeometry width="30" height="30" as="geometry" />
        </mxCell>
        <mxCell id="xagKB5DLQkzwOVzmP2za-35" value="id bigint NOT NULL" style="shape=partialRectangle;connectable=0;fillColor=none;top=0;left=0;bottom=0;right=0;align=left;spacingLeft=6;fontStyle=5;overflow=hidden;" parent="xagKB5DLQkzwOVzmP2za-33" vertex="1">
          <mxGeometry x="30" width="190" height="30" as="geometry" />
        </mxCell>
        <mxCell id="xagKB5DLQkzwOVzmP2za-36" value="" style="shape=partialRectangle;collapsible=0;dropTarget=0;pointerEvents=0;fillColor=none;top=0;left=0;bottom=0;right=0;points=[[0,0.5],[1,0.5]];portConstraint=eastwest;" parent="xagKB5DLQkzwOVzmP2za-32" vertex="1">
          <mxGeometry y="60" width="220" height="30" as="geometry" />
        </mxCell>
        <mxCell id="xagKB5DLQkzwOVzmP2za-37" value="" style="shape=partialRectangle;connectable=0;fillColor=none;top=0;left=0;bottom=0;right=0;editable=1;overflow=hidden;" parent="xagKB5DLQkzwOVzmP2za-36" vertex="1">
          <mxGeometry width="30" height="30" as="geometry" />
        </mxCell>
        <mxCell id="xagKB5DLQkzwOVzmP2za-38" value="description text NOT NULL" style="shape=partialRectangle;connectable=0;fillColor=none;top=0;left=0;bottom=0;right=0;align=left;spacingLeft=6;overflow=hidden;" parent="xagKB5DLQkzwOVzmP2za-36" vertex="1">
          <mxGeometry x="30" width="190" height="30" as="geometry" />
        </mxCell>
        <mxCell id="xagKB5DLQkzwOVzmP2za-39" value="" style="shape=partialRectangle;collapsible=0;dropTarget=0;pointerEvents=0;fillColor=none;top=0;left=0;bottom=0;right=0;points=[[0,0.5],[1,0.5]];portConstraint=eastwest;" parent="xagKB5DLQkzwOVzmP2za-32" vertex="1">
          <mxGeometry y="90" width="220" height="30" as="geometry" />
        </mxCell>
        <mxCell id="xagKB5DLQkzwOVzmP2za-40" value="" style="shape=partialRectangle;connectable=0;fillColor=none;top=0;left=0;bottom=0;right=0;editable=1;overflow=hidden;" parent="xagKB5DLQkzwOVzmP2za-39" vertex="1">
          <mxGeometry width="30" height="30" as="geometry" />
        </mxCell>
        <mxCell id="xagKB5DLQkzwOVzmP2za-41" value="date_start date NULL" style="shape=partialRectangle;connectable=0;fillColor=none;top=0;left=0;bottom=0;right=0;align=left;spacingLeft=6;overflow=hidden;" parent="xagKB5DLQkzwOVzmP2za-39" vertex="1">
          <mxGeometry x="30" width="190" height="30" as="geometry" />
        </mxCell>
        <mxCell id="xagKB5DLQkzwOVzmP2za-46" value="" style="shape=partialRectangle;collapsible=0;dropTarget=0;pointerEvents=0;fillColor=none;top=0;left=0;bottom=0;right=0;points=[[0,0.5],[1,0.5]];portConstraint=eastwest;" parent="xagKB5DLQkzwOVzmP2za-32" vertex="1">
          <mxGeometry y="120" width="220" height="30" as="geometry" />
        </mxCell>
        <mxCell id="xagKB5DLQkzwOVzmP2za-47" value="" style="shape=partialRectangle;connectable=0;fillColor=none;top=0;left=0;bottom=0;right=0;editable=1;overflow=hidden;" parent="xagKB5DLQkzwOVzmP2za-46" vertex="1">
          <mxGeometry width="30" height="30" as="geometry" />
        </mxCell>
        <mxCell id="xagKB5DLQkzwOVzmP2za-48" value="date_end date NULL" style="shape=partialRectangle;connectable=0;fillColor=none;top=0;left=0;bottom=0;right=0;align=left;spacingLeft=6;overflow=hidden;" parent="xagKB5DLQkzwOVzmP2za-46" vertex="1">
          <mxGeometry x="30" width="190" height="30" as="geometry" />
        </mxCell>
        <mxCell id="xagKB5DLQkzwOVzmP2za-100" value="price" style="shape=table;startSize=30;container=1;collapsible=1;childLayout=tableLayout;fixedRows=1;rowLines=0;fontStyle=1;align=center;resizeLast=1;" parent="1" vertex="1">
          <mxGeometry x="770" y="-640" width="220" height="160" as="geometry" />
        </mxCell>
        <mxCell id="xagKB5DLQkzwOVzmP2za-101" value="" style="shape=partialRectangle;collapsible=0;dropTarget=0;pointerEvents=0;fillColor=none;top=0;left=0;bottom=1;right=0;points=[[0,0.5],[1,0.5]];portConstraint=eastwest;" parent="xagKB5DLQkzwOVzmP2za-100" vertex="1">
          <mxGeometry y="30" width="220" height="30" as="geometry" />
        </mxCell>
        <mxCell id="xagKB5DLQkzwOVzmP2za-102" value="PK" style="shape=partialRectangle;connectable=0;fillColor=none;top=0;left=0;bottom=0;right=0;fontStyle=1;overflow=hidden;" parent="xagKB5DLQkzwOVzmP2za-101" vertex="1">
          <mxGeometry width="30" height="30" as="geometry" />
        </mxCell>
        <mxCell id="xagKB5DLQkzwOVzmP2za-103" value="id bigint NOT NULL" style="shape=partialRectangle;connectable=0;fillColor=none;top=0;left=0;bottom=0;right=0;align=left;spacingLeft=6;fontStyle=5;overflow=hidden;" parent="xagKB5DLQkzwOVzmP2za-101" vertex="1">
          <mxGeometry x="30" width="190" height="30" as="geometry" />
        </mxCell>
        <mxCell id="xagKB5DLQkzwOVzmP2za-104" value="" style="shape=partialRectangle;collapsible=0;dropTarget=0;pointerEvents=0;fillColor=none;top=0;left=0;bottom=0;right=0;points=[[0,0.5],[1,0.5]];portConstraint=eastwest;" parent="xagKB5DLQkzwOVzmP2za-100" vertex="1">
          <mxGeometry y="60" width="220" height="30" as="geometry" />
        </mxCell>
        <mxCell id="xagKB5DLQkzwOVzmP2za-105" value="" style="shape=partialRectangle;connectable=0;fillColor=none;top=0;left=0;bottom=0;right=0;editable=1;overflow=hidden;" parent="xagKB5DLQkzwOVzmP2za-104" vertex="1">
          <mxGeometry width="30" height="30" as="geometry" />
        </mxCell>
        <mxCell id="xagKB5DLQkzwOVzmP2za-106" value="value integer NULL" style="shape=partialRectangle;connectable=0;fillColor=none;top=0;left=0;bottom=0;right=0;align=left;spacingLeft=6;overflow=hidden;" parent="xagKB5DLQkzwOVzmP2za-104" vertex="1">
          <mxGeometry x="30" width="190" height="30" as="geometry" />
        </mxCell>
        <mxCell id="xagKB5DLQkzwOVzmP2za-107" value="" style="shape=partialRectangle;collapsible=0;dropTarget=0;pointerEvents=0;fillColor=none;top=0;left=0;bottom=0;right=0;points=[[0,0.5],[1,0.5]];portConstraint=eastwest;" parent="xagKB5DLQkzwOVzmP2za-100" vertex="1">
          <mxGeometry y="90" width="220" height="30" as="geometry" />
        </mxCell>
        <mxCell id="xagKB5DLQkzwOVzmP2za-108" value="" style="shape=partialRectangle;connectable=0;fillColor=none;top=0;left=0;bottom=0;right=0;editable=1;overflow=hidden;" parent="xagKB5DLQkzwOVzmP2za-107" vertex="1">
          <mxGeometry width="30" height="30" as="geometry" />
        </mxCell>
        <mxCell id="xagKB5DLQkzwOVzmP2za-109" value="tax integer NULL" style="shape=partialRectangle;connectable=0;fillColor=none;top=0;left=0;bottom=0;right=0;align=left;spacingLeft=6;overflow=hidden;" parent="xagKB5DLQkzwOVzmP2za-107" vertex="1">
          <mxGeometry x="30" width="190" height="30" as="geometry" />
        </mxCell>
        <mxCell id="xagKB5DLQkzwOVzmP2za-212" value="" style="shape=partialRectangle;collapsible=0;dropTarget=0;pointerEvents=0;fillColor=none;top=0;left=0;bottom=0;right=0;points=[[0,0.5],[1,0.5]];portConstraint=eastwest;" parent="xagKB5DLQkzwOVzmP2za-100" vertex="1">
          <mxGeometry y="120" width="220" height="30" as="geometry" />
        </mxCell>
        <mxCell id="xagKB5DLQkzwOVzmP2za-213" value="" style="shape=partialRectangle;connectable=0;fillColor=none;top=0;left=0;bottom=0;right=0;editable=1;overflow=hidden;" parent="xagKB5DLQkzwOVzmP2za-212" vertex="1">
          <mxGeometry width="30" height="30" as="geometry" />
        </mxCell>
        <mxCell id="xagKB5DLQkzwOVzmP2za-214" value="date_creation date NULL" style="shape=partialRectangle;connectable=0;fillColor=none;top=0;left=0;bottom=0;right=0;align=left;spacingLeft=6;overflow=hidden;" parent="xagKB5DLQkzwOVzmP2za-212" vertex="1">
          <mxGeometry x="30" width="190" height="30" as="geometry" />
        </mxCell>
        <mxCell id="xagKB5DLQkzwOVzmP2za-117" value="discount" style="shape=table;startSize=30;container=1;collapsible=1;childLayout=tableLayout;fixedRows=1;rowLines=0;fontStyle=1;align=center;resizeLast=1;" parent="1" vertex="1">
          <mxGeometry x="770" y="-430" width="230" height="160" as="geometry" />
        </mxCell>
        <mxCell id="xagKB5DLQkzwOVzmP2za-118" value="" style="shape=partialRectangle;collapsible=0;dropTarget=0;pointerEvents=0;fillColor=none;top=0;left=0;bottom=1;right=0;points=[[0,0.5],[1,0.5]];portConstraint=eastwest;" parent="xagKB5DLQkzwOVzmP2za-117" vertex="1">
          <mxGeometry y="30" width="230" height="30" as="geometry" />
        </mxCell>
        <mxCell id="xagKB5DLQkzwOVzmP2za-119" value="PK" style="shape=partialRectangle;connectable=0;fillColor=none;top=0;left=0;bottom=0;right=0;fontStyle=1;overflow=hidden;" parent="xagKB5DLQkzwOVzmP2za-118" vertex="1">
          <mxGeometry width="30" height="30" as="geometry" />
        </mxCell>
        <mxCell id="xagKB5DLQkzwOVzmP2za-120" value="id bigint NOT NULL" style="shape=partialRectangle;connectable=0;fillColor=none;top=0;left=0;bottom=0;right=0;align=left;spacingLeft=6;fontStyle=5;overflow=hidden;" parent="xagKB5DLQkzwOVzmP2za-118" vertex="1">
          <mxGeometry x="30" width="200" height="30" as="geometry" />
        </mxCell>
        <mxCell id="xagKB5DLQkzwOVzmP2za-121" value="" style="shape=partialRectangle;collapsible=0;dropTarget=0;pointerEvents=0;fillColor=none;top=0;left=0;bottom=0;right=0;points=[[0,0.5],[1,0.5]];portConstraint=eastwest;" parent="xagKB5DLQkzwOVzmP2za-117" vertex="1">
          <mxGeometry y="60" width="230" height="30" as="geometry" />
        </mxCell>
        <mxCell id="xagKB5DLQkzwOVzmP2za-122" value="" style="shape=partialRectangle;connectable=0;fillColor=none;top=0;left=0;bottom=0;right=0;editable=1;overflow=hidden;" parent="xagKB5DLQkzwOVzmP2za-121" vertex="1">
          <mxGeometry width="30" height="30" as="geometry" />
        </mxCell>
        <mxCell id="xagKB5DLQkzwOVzmP2za-123" value="value integer NULL" style="shape=partialRectangle;connectable=0;fillColor=none;top=0;left=0;bottom=0;right=0;align=left;spacingLeft=6;overflow=hidden;" parent="xagKB5DLQkzwOVzmP2za-121" vertex="1">
          <mxGeometry x="30" width="200" height="30" as="geometry" />
        </mxCell>
        <mxCell id="xagKB5DLQkzwOVzmP2za-124" value="" style="shape=partialRectangle;collapsible=0;dropTarget=0;pointerEvents=0;fillColor=none;top=0;left=0;bottom=0;right=0;points=[[0,0.5],[1,0.5]];portConstraint=eastwest;" parent="xagKB5DLQkzwOVzmP2za-117" vertex="1">
          <mxGeometry y="90" width="230" height="30" as="geometry" />
        </mxCell>
        <mxCell id="xagKB5DLQkzwOVzmP2za-125" value="" style="shape=partialRectangle;connectable=0;fillColor=none;top=0;left=0;bottom=0;right=0;editable=1;overflow=hidden;" parent="xagKB5DLQkzwOVzmP2za-124" vertex="1">
          <mxGeometry width="30" height="30" as="geometry" />
        </mxCell>
        <mxCell id="xagKB5DLQkzwOVzmP2za-126" value="date_start date NULL" style="shape=partialRectangle;connectable=0;fillColor=none;top=0;left=0;bottom=0;right=0;align=left;spacingLeft=6;overflow=hidden;" parent="xagKB5DLQkzwOVzmP2za-124" vertex="1">
          <mxGeometry x="30" width="200" height="30" as="geometry" />
        </mxCell>
        <mxCell id="xagKB5DLQkzwOVzmP2za-127" value="" style="shape=partialRectangle;collapsible=0;dropTarget=0;pointerEvents=0;fillColor=none;top=0;left=0;bottom=0;right=0;points=[[0,0.5],[1,0.5]];portConstraint=eastwest;" parent="xagKB5DLQkzwOVzmP2za-117" vertex="1">
          <mxGeometry y="120" width="230" height="30" as="geometry" />
        </mxCell>
        <mxCell id="xagKB5DLQkzwOVzmP2za-128" value="" style="shape=partialRectangle;connectable=0;fillColor=none;top=0;left=0;bottom=0;right=0;editable=1;overflow=hidden;" parent="xagKB5DLQkzwOVzmP2za-127" vertex="1">
          <mxGeometry width="30" height="30" as="geometry" />
        </mxCell>
        <mxCell id="xagKB5DLQkzwOVzmP2za-129" value="date_end date NULL" style="shape=partialRectangle;connectable=0;fillColor=none;top=0;left=0;bottom=0;right=0;align=left;spacingLeft=6;overflow=hidden;" parent="xagKB5DLQkzwOVzmP2za-127" vertex="1">
          <mxGeometry x="30" width="200" height="30" as="geometry" />
        </mxCell>
        <mxCell id="xagKB5DLQkzwOVzmP2za-142" value="categorie" style="shape=table;startSize=30;container=1;collapsible=1;childLayout=tableLayout;fixedRows=1;rowLines=0;fontStyle=1;align=center;resizeLast=1;" parent="1" vertex="1">
          <mxGeometry x="-130" y="-450" width="210" height="160" as="geometry" />
        </mxCell>
        <mxCell id="xagKB5DLQkzwOVzmP2za-156" value="" style="shape=partialRectangle;collapsible=0;dropTarget=0;pointerEvents=0;fillColor=none;top=0;left=0;bottom=1;right=0;points=[[0,0.5],[1,0.5]];portConstraint=eastwest;" parent="xagKB5DLQkzwOVzmP2za-142" vertex="1">
          <mxGeometry y="30" width="210" height="30" as="geometry" />
        </mxCell>
        <mxCell id="xagKB5DLQkzwOVzmP2za-157" value="PK" style="shape=partialRectangle;connectable=0;fillColor=none;top=0;left=0;bottom=0;right=0;fontStyle=1;overflow=hidden;" parent="xagKB5DLQkzwOVzmP2za-156" vertex="1">
          <mxGeometry width="30" height="30" as="geometry" />
        </mxCell>
        <mxCell id="xagKB5DLQkzwOVzmP2za-158" value="id bigint NOT NULL" style="shape=partialRectangle;connectable=0;fillColor=none;top=0;left=0;bottom=0;right=0;align=left;spacingLeft=6;fontStyle=5;overflow=hidden;" parent="xagKB5DLQkzwOVzmP2za-156" vertex="1">
          <mxGeometry x="30" width="180" height="30" as="geometry" />
        </mxCell>
        <mxCell id="xagKB5DLQkzwOVzmP2za-146" value="" style="shape=partialRectangle;collapsible=0;dropTarget=0;pointerEvents=0;fillColor=none;top=0;left=0;bottom=0;right=0;points=[[0,0.5],[1,0.5]];portConstraint=eastwest;" parent="xagKB5DLQkzwOVzmP2za-142" vertex="1">
          <mxGeometry y="60" width="210" height="30" as="geometry" />
        </mxCell>
        <mxCell id="xagKB5DLQkzwOVzmP2za-147" value="" style="shape=partialRectangle;connectable=0;fillColor=none;top=0;left=0;bottom=0;right=0;editable=1;overflow=hidden;" parent="xagKB5DLQkzwOVzmP2za-146" vertex="1">
          <mxGeometry width="30" height="30" as="geometry" />
        </mxCell>
        <mxCell id="xagKB5DLQkzwOVzmP2za-148" value="type_categorie text NULL" style="shape=partialRectangle;connectable=0;fillColor=none;top=0;left=0;bottom=0;right=0;align=left;spacingLeft=6;overflow=hidden;" parent="xagKB5DLQkzwOVzmP2za-146" vertex="1">
          <mxGeometry x="30" width="180" height="30" as="geometry" />
        </mxCell>
        <mxCell id="xagKB5DLQkzwOVzmP2za-149" value="" style="shape=partialRectangle;collapsible=0;dropTarget=0;pointerEvents=0;fillColor=none;top=0;left=0;bottom=0;right=0;points=[[0,0.5],[1,0.5]];portConstraint=eastwest;" parent="xagKB5DLQkzwOVzmP2za-142" vertex="1">
          <mxGeometry y="90" width="210" height="30" as="geometry" />
        </mxCell>
        <mxCell id="xagKB5DLQkzwOVzmP2za-150" value="" style="shape=partialRectangle;connectable=0;fillColor=none;top=0;left=0;bottom=0;right=0;editable=1;overflow=hidden;" parent="xagKB5DLQkzwOVzmP2za-149" vertex="1">
          <mxGeometry width="30" height="30" as="geometry" />
        </mxCell>
        <mxCell id="xagKB5DLQkzwOVzmP2za-151" value="description text NULL" style="shape=partialRectangle;connectable=0;fillColor=none;top=0;left=0;bottom=0;right=0;align=left;spacingLeft=6;overflow=hidden;" parent="xagKB5DLQkzwOVzmP2za-149" vertex="1">
          <mxGeometry x="30" width="180" height="30" as="geometry" />
        </mxCell>
        <mxCell id="xagKB5DLQkzwOVzmP2za-152" value="" style="shape=partialRectangle;collapsible=0;dropTarget=0;pointerEvents=0;fillColor=none;top=0;left=0;bottom=0;right=0;points=[[0,0.5],[1,0.5]];portConstraint=eastwest;" parent="xagKB5DLQkzwOVzmP2za-142" vertex="1">
          <mxGeometry y="120" width="210" height="30" as="geometry" />
        </mxCell>
        <mxCell id="xagKB5DLQkzwOVzmP2za-153" value="" style="shape=partialRectangle;connectable=0;fillColor=none;top=0;left=0;bottom=0;right=0;editable=1;overflow=hidden;" parent="xagKB5DLQkzwOVzmP2za-152" vertex="1">
          <mxGeometry width="30" height="30" as="geometry" />
        </mxCell>
        <mxCell id="xagKB5DLQkzwOVzmP2za-154" value="date_creation date NOT NULL" style="shape=partialRectangle;connectable=0;fillColor=none;top=0;left=0;bottom=0;right=0;align=left;spacingLeft=6;overflow=hidden;" parent="xagKB5DLQkzwOVzmP2za-152" vertex="1">
          <mxGeometry x="30" width="180" height="30" as="geometry" />
        </mxCell>
        <mxCell id="xagKB5DLQkzwOVzmP2za-167" style="edgeStyle=orthogonalEdgeStyle;rounded=0;orthogonalLoop=1;jettySize=auto;html=1;exitX=0;exitY=0.5;exitDx=0;exitDy=0;entryX=1;entryY=0.5;entryDx=0;entryDy=0;endArrow=ERmany;endFill=0;" parent="1" source="xagKB5DLQkzwOVzmP2za-26" target="xagKB5DLQkzwOVzmP2za-33" edge="1">
          <mxGeometry relative="1" as="geometry" />
        </mxCell>
        <mxCell id="xagKB5DLQkzwOVzmP2za-168" style="edgeStyle=orthogonalEdgeStyle;rounded=0;orthogonalLoop=1;jettySize=auto;html=1;exitX=0;exitY=0.5;exitDx=0;exitDy=0;entryX=1;entryY=0.5;entryDx=0;entryDy=0;endArrow=ERmany;endFill=0;" parent="1" source="xagKB5DLQkzwOVzmP2za-160" target="xagKB5DLQkzwOVzmP2za-156" edge="1">
          <mxGeometry relative="1" as="geometry">
            <Array as="points">
              <mxPoint x="300" y="-555" />
              <mxPoint x="300" y="-520" />
              <mxPoint x="273" y="-520" />
              <mxPoint x="273" y="-405" />
            </Array>
          </mxGeometry>
        </mxCell>
        <mxCell id="xagKB5DLQkzwOVzmP2za-206" style="edgeStyle=orthogonalEdgeStyle;rounded=0;orthogonalLoop=1;jettySize=auto;html=1;exitX=1;exitY=0.5;exitDx=0;exitDy=0;endArrow=ERmany;endFill=0;" parent="1" source="xagKB5DLQkzwOVzmP2za-164" target="xagKB5DLQkzwOVzmP2za-101" edge="1">
          <mxGeometry relative="1" as="geometry" />
        </mxCell>
        <mxCell id="xagKB5DLQkzwOVzmP2za-211" style="edgeStyle=orthogonalEdgeStyle;rounded=0;orthogonalLoop=1;jettySize=auto;html=1;exitX=1;exitY=0.5;exitDx=0;exitDy=0;entryX=0;entryY=0.5;entryDx=0;entryDy=0;endArrow=ERmany;endFill=0;" parent="1" source="xagKB5DLQkzwOVzmP2za-203" target="xagKB5DLQkzwOVzmP2za-118" edge="1">
          <mxGeometry relative="1" as="geometry" />
        </mxCell>
      </root>
    </mxGraphModel>
  </diagram>
</mxfile>
